<svg width="21" height="23" viewBox="0 0 21 23" fill="none" xmlns="http://www.w3.org/2000/svg">
<mask id="path-1-outside-1_567_66" maskUnits="userSpaceOnUse" x="0" y="0" width="21" height="23" fill="black">
<rect fill="white" width="21" height="23"/>
<path d="M18.6429 12.9299H11.8571V20.3861C11.8571 20.7816 11.7142 21.1609 11.4596 21.4406C11.2051 21.7203 10.8599 21.8774 10.5 21.8774C10.1401 21.8774 9.79487 21.7203 9.54036 21.4406C9.28584 21.1609 9.14286 20.7816 9.14286 20.3861V12.9299H2.35714C1.99721 12.9299 1.65201 12.7728 1.3975 12.4932C1.14298 12.2135 1 11.8342 1 11.4387C1 11.0432 1.14298 10.6639 1.3975 10.3842C1.65201 10.1046 1.99721 9.94745 2.35714 9.94745H9.14286V2.49124C9.14286 2.09574 9.28584 1.71644 9.54036 1.43677C9.79487 1.15711 10.1401 1 10.5 1C10.8599 1 11.2051 1.15711 11.4596 1.43677C11.7142 1.71644 11.8571 2.09574 11.8571 2.49124V9.94745H18.6429C19.0028 9.94745 19.348 10.1046 19.6025 10.3842C19.857 10.6639 20 11.0432 20 11.4387C20 11.8342 19.857 12.2135 19.6025 12.4932C19.348 12.7728 19.0028 12.9299 18.6429 12.9299Z"/>
</mask>
<path d="M18.6429 12.9299H11.8571V20.3861C11.8571 20.7816 11.7142 21.1609 11.4596 21.4406C11.2051 21.7203 10.8599 21.8774 10.5 21.8774C10.1401 21.8774 9.79487 21.7203 9.54036 21.4406C9.28584 21.1609 9.14286 20.7816 9.14286 20.3861V12.9299H2.35714C1.99721 12.9299 1.65201 12.7728 1.3975 12.4932C1.14298 12.2135 1 11.8342 1 11.4387C1 11.0432 1.14298 10.6639 1.3975 10.3842C1.65201 10.1046 1.99721 9.94745 2.35714 9.94745H9.14286V2.49124C9.14286 2.09574 9.28584 1.71644 9.54036 1.43677C9.79487 1.15711 10.1401 1 10.5 1C10.8599 1 11.2051 1.15711 11.4596 1.43677C11.7142 1.71644 11.8571 2.09574 11.8571 2.49124V9.94745H18.6429C19.0028 9.94745 19.348 10.1046 19.6025 10.3842C19.857 10.6639 20 11.0432 20 11.4387C20 11.8342 19.857 12.2135 19.6025 12.4932C19.348 12.7728 19.0028 12.9299 18.6429 12.9299Z" fill="#62B01E"/>
<path d="M18.6429 12.9299H11.8571V20.3861C11.8571 20.7816 11.7142 21.1609 11.4596 21.4406C11.2051 21.7203 10.8599 21.8774 10.5 21.8774C10.1401 21.8774 9.79487 21.7203 9.54036 21.4406C9.28584 21.1609 9.14286 20.7816 9.14286 20.3861V12.9299H2.35714C1.99721 12.9299 1.65201 12.7728 1.3975 12.4932C1.14298 12.2135 1 11.8342 1 11.4387C1 11.0432 1.14298 10.6639 1.3975 10.3842C1.65201 10.1046 1.99721 9.94745 2.35714 9.94745H9.14286V2.49124C9.14286 2.09574 9.28584 1.71644 9.54036 1.43677C9.79487 1.15711 10.1401 1 10.5 1C10.8599 1 11.2051 1.15711 11.4596 1.43677C11.7142 1.71644 11.8571 2.09574 11.8571 2.49124V9.94745H18.6429C19.0028 9.94745 19.348 10.1046 19.6025 10.3842C19.857 10.6639 20 11.0432 20 11.4387C20 11.8342 19.857 12.2135 19.6025 12.4932C19.348 12.7728 19.0028 12.9299 18.6429 12.9299Z" stroke="#62B01E" stroke-width="2" mask="url(#path-1-outside-1_567_66)"/>
</svg>
