<svg width="79" height="62" viewBox="0 0 79 62" fill="none" xmlns="http://www.w3.org/2000/svg">
<path d="M17.2784 20.6289L2 11.8144V43.5464L31.9691 60L46.0722 52.2062M17.2784 20.6289V3L47.2474 18.866L76.6289 3V35.3196L46.0722 52.2062M17.2784 20.6289V36.4948L46.0722 52.2062" stroke="#9C9C9C" stroke-width="3"/>
<path d="M34.596 36.2062V26.4062H38.264C39.0947 26.4062 39.8087 26.5415 40.406 26.8122C41.0033 27.0735 41.4607 27.4562 41.778 27.9602C42.1047 28.4549 42.268 29.0569 42.268 29.7662C42.268 30.4569 42.1047 31.0542 41.778 31.5582C41.4607 32.0529 41.0033 32.4355 40.406 32.7062C39.8087 32.9769 39.0947 33.1122 38.264 33.1122H35.17L35.632 32.6222V36.2062H34.596ZM35.632 32.7062L35.17 32.2022H38.236C39.216 32.2022 39.958 31.9922 40.462 31.5722C40.9753 31.1429 41.232 30.5409 41.232 29.7662C41.232 28.9822 40.9753 28.3755 40.462 27.9462C39.958 27.5169 39.216 27.3022 38.236 27.3022H35.17L35.632 26.8122V32.7062ZM43.6681 36.2062V26.4062H47.3361C48.1668 26.4062 48.8808 26.5415 49.4781 26.8122C50.0754 27.0735 50.5328 27.4562 50.8501 27.9602C51.1768 28.4549 51.3401 29.0569 51.3401 29.7662C51.3401 30.4569 51.1768 31.0542 50.8501 31.5582C50.5328 32.0529 50.0754 32.4355 49.4781 32.7062C48.8808 32.9675 48.1668 33.0982 47.3361 33.0982H44.2421L44.7041 32.6222V36.2062H43.6681ZM50.3601 36.2062L47.8401 32.6502H48.9601L51.4941 36.2062H50.3601ZM44.7041 32.7062L44.2421 32.2162H47.3081C48.2881 32.2162 49.0301 32.0015 49.5341 31.5722C50.0474 31.1429 50.3041 30.5409 50.3041 29.7662C50.3041 28.9822 50.0474 28.3755 49.5341 27.9462C49.0301 27.5169 48.2881 27.3022 47.3081 27.3022H44.2421L44.7041 26.8122V32.7062ZM57.2293 36.2902C56.492 36.2902 55.806 36.1689 55.1713 35.9262C54.546 35.6742 54 35.3242 53.5333 34.8762C53.076 34.4189 52.7166 33.8915 52.4553 33.2942C52.2033 32.6875 52.0773 32.0249 52.0773 31.3062C52.0773 30.5875 52.2033 29.9295 52.4553 29.3322C52.7166 28.7255 53.076 28.1982 53.5333 27.7502C54 27.2929 54.546 26.9429 55.1713 26.7002C55.7966 26.4482 56.4826 26.3222 57.2293 26.3222C57.9666 26.3222 58.648 26.4482 59.2733 26.7002C59.8986 26.9429 60.44 27.2882 60.8973 27.7362C61.364 28.1842 61.7233 28.7115 61.9753 29.3182C62.2366 29.9249 62.3673 30.5875 62.3673 31.3062C62.3673 32.0249 62.2366 32.6875 61.9753 33.2942C61.7233 33.9009 61.364 34.4282 60.8973 34.8762C60.44 35.3242 59.8986 35.6742 59.2733 35.9262C58.648 36.1689 57.9666 36.2902 57.2293 36.2902ZM57.2293 35.3662C57.8173 35.3662 58.3586 35.2682 58.8533 35.0722C59.3573 34.8669 59.7913 34.5822 60.1553 34.2182C60.5286 33.8449 60.818 33.4155 61.0233 32.9302C61.2286 32.4355 61.3313 31.8942 61.3313 31.3062C61.3313 30.7182 61.2286 30.1815 61.0233 29.6962C60.818 29.2015 60.5286 28.7722 60.1553 28.4082C59.7913 28.0349 59.3573 27.7502 58.8533 27.5542C58.3586 27.3489 57.8173 27.2462 57.2293 27.2462C56.6413 27.2462 56.0953 27.3489 55.5913 27.5542C55.0873 27.7502 54.6486 28.0349 54.2753 28.4082C53.9113 28.7722 53.622 29.2015 53.4073 29.6962C53.202 30.1815 53.0993 30.7182 53.0993 31.3062C53.0993 31.8849 53.202 32.4215 53.4073 32.9162C53.622 33.4109 53.9113 33.8449 54.2753 34.2182C54.6486 34.5822 55.0873 34.8669 55.5913 35.0722C56.0953 35.2682 56.6413 35.3662 57.2293 35.3662Z" fill="#9C9C9C"/>
</svg>
