<svg width="21" height="20" viewBox="0 0 21 20" fill="none" xmlns="http://www.w3.org/2000/svg">
<path d="M5.64631 8.86735C5.64631 10.0062 6.00083 11.1194 6.66504 12.0663C7.32924 13.0132 8.2733 13.7512 9.37784 14.1871C10.4824 14.6229 11.6978 14.7369 12.8703 14.5147C14.0429 14.2926 15.12 13.7442 15.9654 12.9389C16.8107 12.1336 17.3864 11.1076 17.6197 9.99068C17.8529 8.87373 17.7332 7.71599 17.2757 6.66385C16.8182 5.61171 16.0434 4.71243 15.0494 4.07973C14.0553 3.44703 12.8866 3.10933 11.6911 3.10933C10.0879 3.10933 8.55039 3.71597 7.41678 4.79581C6.28317 5.87565 5.64631 7.34022 5.64631 8.86735ZM0.23625 19.7788C0.390303 19.9207 0.596209 20 0.810501 20C1.02479 20 1.2307 19.9207 1.38475 19.7788L5.73698 15.6234C7.56997 17.09 9.92657 17.8259 12.3153 17.6776C14.704 17.5293 16.9404 16.5083 18.5581 14.8275C20.1757 13.1467 21.0497 10.9359 20.9978 8.65623C20.9459 6.37653 19.972 4.20394 18.2794 2.59157C16.5867 0.979197 14.3059 0.0515451 11.9127 0.00208409C9.51947 -0.0473769 7.1986 0.785172 5.43411 2.32609C3.66962 3.86701 2.59777 5.99733 2.4421 8.27274C2.28642 10.5481 3.05895 12.793 4.59855 14.539L0.23625 18.6848C0.0849037 18.8303 0 19.0269 0 19.2318C0 19.4366 0.0849037 19.6332 0.23625 19.7788ZM11.6911 16.1608C10.1767 16.1608 8.69637 15.7331 7.43724 14.9317C6.1781 14.1302 5.19672 12.9912 4.6172 11.6584C4.03769 10.3257 3.88606 8.85925 4.18149 7.44446C4.47693 6.02966 5.20616 4.73008 6.27697 3.71007C7.34778 2.69006 8.71207 1.99542 10.1973 1.714C11.6826 1.43258 13.2221 1.57701 14.6212 2.12904C16.0202 2.68107 17.2161 3.61589 18.0574 4.8153C18.8987 6.01471 19.3478 7.42483 19.3478 8.86735C19.3451 10.8009 18.5376 12.6546 17.1022 14.0218C15.6669 15.3891 13.7209 16.1583 11.6911 16.1608Z" fill="black"/>
</svg>
