<svg width="21" height="20" viewBox="0 0 21 20" fill="none" xmlns="http://www.w3.org/2000/svg">
<path fill-rule="evenodd" clip-rule="evenodd" d="M5.95549 8.18112C5.95549 9.01677 6.12008 9.84424 6.43987 10.6163C6.75966 11.3883 7.22839 12.0898 7.81928 12.6807C8.41018 13.2716 9.11167 13.7403 9.88372 14.0601C10.6558 14.3799 11.4832 14.5445 12.3189 14.5445C13.1545 14.5445 13.982 14.3799 14.754 14.0601C15.5261 13.7403 16.2276 13.2716 16.8185 12.6807C17.4094 12.0898 17.8781 11.3883 18.1979 10.6163C18.5177 9.84424 18.6823 9.01677 18.6823 8.18112C18.6823 6.49344 18.0118 4.87489 16.8185 3.68152C15.6251 2.48815 14.0066 1.81772 12.3189 1.81772C10.6312 1.81772 9.01265 2.48815 7.81928 3.68152C6.62591 4.87489 5.95549 6.49344 5.95549 8.18112ZM7.2118 14.5736C8.84553 15.8788 10.917 16.5089 13.0008 16.3345C15.0846 16.1601 17.0225 15.1945 18.4166 13.6359C19.8106 12.0773 20.555 10.0441 20.4968 7.95384C20.4386 5.86357 19.5823 3.87493 18.1037 2.39631C16.6251 0.917698 14.6364 0.0613608 12.5462 0.00317155C10.4559 -0.0550177 8.42268 0.689357 6.8641 2.08342C5.30551 3.47748 4.33987 5.41541 4.16548 7.49921C3.99109 9.583 4.6212 11.6545 5.9264 13.2882L0.766592 18.4462C0.682072 18.5307 0.615026 18.631 0.569284 18.7415C0.523542 18.8519 0.5 18.9703 0.5 19.0898C0.5 19.2093 0.523542 19.3277 0.569284 19.4381C0.615026 19.5485 0.682072 19.6489 0.766592 19.7334C0.851112 19.8179 0.951452 19.885 1.06188 19.9307C1.17231 19.9765 1.29067 20 1.4102 20C1.52973 20 1.64809 19.9765 1.75852 19.9307C1.86896 19.885 1.9693 19.8179 2.05382 19.7334L7.20998 14.5736H7.2118Z" fill="black"/>
</svg>
